<svg xmlns="http://www.w3.org/2000/svg" version="1.1" xmlns:xlink="http://www.w3.org/1999/xlink" xmlns:svgjs="http://svgjs.dev/svgjs" width="1000" height="1000"><g clip-path="url(#SvgjsClipPath1010)"><rect width="1000" height="1000" fill="#ffffff"></rect><g transform="matrix(3.5,0,0,3.5,150,314.5)"><svg xmlns="http://www.w3.org/2000/svg" version="1.1" xmlns:xlink="http://www.w3.org/1999/xlink" xmlns:svgjs="http://svgjs.dev/svgjs" width="200" height="106"><svg xmlns="http://www.w3.org/2000/svg" xmlns:xlink="http://www.w3.org/1999/xlink" width="200" zoomAndPan="magnify" viewBox="0 0 150 79.499998" height="106" preserveAspectRatio="xMidYMid meet" version="1.0"><defs><g></g><clipPath id="b5ca3b7cc4"><path d="M 0.917969 13.234375 L 24.832031 13.234375 L 24.832031 64.976562 L 0.917969 64.976562 Z M 0.917969 13.234375 " clip-rule="nonzero"></path></clipPath><clipPath id="89d8992efe"><path d="M 135.808594 51.699219 L 149.082031 51.699219 L 149.082031 64.976562 L 135.808594 64.976562 Z M 135.808594 51.699219 " clip-rule="nonzero"></path></clipPath><clipPath id="1288cfac32"><path d="M 142.445312 51.699219 C 138.777344 51.699219 135.808594 54.671875 135.808594 58.335938 C 135.808594 62.003906 138.777344 64.976562 142.445312 64.976562 C 146.109375 64.976562 149.082031 62.003906 149.082031 58.335938 C 149.082031 54.671875 146.109375 51.699219 142.445312 51.699219 Z M 142.445312 51.699219 " clip-rule="nonzero"></path></clipPath><clipPath id="SvgjsClipPath1010"><rect width="1000" height="1000" x="0" y="0" rx="350" ry="350"></rect></clipPath></defs><g fill="#000000" fill-opacity="1"><g transform="translate(23.541968, 64.596937)"><g><path d="M 2.28125 -51.71875 L 16.3125 -51.71875 C 20.082031 -51.71875 22.820312 -50.789062 24.53125 -48.9375 C 26.238281 -47.09375 27.09375 -44.085938 27.09375 -39.921875 L 27.09375 -37.625 C 27.09375 -32.6875 25.328125 -29.738281 21.796875 -28.78125 C 23.960938 -28.21875 25.484375 -26.910156 26.359375 -24.859375 C 27.242188 -22.816406 27.6875 -20.109375 27.6875 -16.734375 C 27.6875 -11.234375 26.863281 -7.066406 25.21875 -4.234375 C 23.570312 -1.410156 20.601562 0 16.3125 0 L 2.28125 0 Z M 14.515625 -32.265625 C 15.390625 -32.265625 15.988281 -32.59375 16.3125 -33.25 C 16.632812 -33.914062 16.796875 -34.851562 16.796875 -36.0625 L 16.796875 -41.234375 C 16.796875 -42.921875 16.050781 -43.765625 14.5625 -43.765625 L 12.40625 -43.765625 L 12.40625 -32.265625 Z M 13.421875 -9.09375 C 16.109375 -9.09375 17.453125 -10.375 17.453125 -12.9375 L 17.453125 -19.390625 C 17.453125 -20.953125 17.222656 -22.132812 16.765625 -22.9375 C 16.304688 -23.738281 15.492188 -24.140625 14.328125 -24.140625 L 12.40625 -24.140625 L 12.40625 -9.15625 Z M 13.421875 -9.09375 "></path></g></g></g><g fill="#000000" fill-opacity="1"><g transform="translate(52.379248, 64.596937)"><g><path d="M 2.28125 0 L 2.28125 -51.71875 L 12.640625 -51.71875 L 12.640625 -8.796875 L 23.296875 -8.796875 L 23.296875 0 Z M 2.28125 0 "></path></g></g></g><g fill="#000000" fill-opacity="1"><g transform="translate(76.279872, 64.596937)"><g><path d="M 14.625 0.484375 C 10.457031 0.484375 7.285156 -0.789062 5.109375 -3.34375 C 2.941406 -5.894531 1.859375 -9.476562 1.859375 -14.09375 L 1.859375 -38.703125 C 1.859375 -43.160156 2.941406 -46.523438 5.109375 -48.796875 C 7.285156 -51.066406 10.457031 -52.203125 14.625 -52.203125 C 18.800781 -52.203125 21.972656 -51.066406 24.140625 -48.796875 C 26.304688 -46.523438 27.390625 -43.160156 27.390625 -38.703125 L 27.390625 -14.09375 C 27.390625 -9.4375 26.304688 -5.84375 24.140625 -3.3125 C 21.972656 -0.78125 18.800781 0.484375 14.625 0.484375 Z M 14.625 -9.03125 C 15.550781 -9.03125 16.175781 -9.429688 16.5 -10.234375 C 16.820312 -11.035156 16.984375 -12.160156 16.984375 -13.609375 L 16.984375 -38.890625 C 16.984375 -40.015625 16.832031 -40.925781 16.53125 -41.625 C 16.226562 -42.332031 15.613281 -42.6875 14.6875 -42.6875 C 12.957031 -42.6875 12.09375 -41.378906 12.09375 -38.765625 L 12.09375 -13.546875 C 12.09375 -12.054688 12.273438 -10.929688 12.640625 -10.171875 C 13.003906 -9.410156 13.664062 -9.03125 14.625 -9.03125 Z M 14.625 -9.03125 "></path></g></g></g><g fill="#000000" fill-opacity="1"><g transform="translate(105.538576, 64.596937)"><g><path d="M 12.9375 0.484375 C 9.207031 0.484375 6.425781 -0.828125 4.59375 -3.453125 C 2.769531 -6.085938 1.859375 -10.070312 1.859375 -15.40625 L 1.859375 -37.6875 C 1.859375 -42.457031 2.921875 -46.066406 5.046875 -48.515625 C 7.179688 -50.972656 10.351562 -52.203125 14.5625 -52.203125 C 17.976562 -52.203125 20.628906 -51.519531 22.515625 -50.15625 C 24.398438 -48.789062 25.703125 -46.800781 26.421875 -44.1875 C 27.148438 -41.582031 27.515625 -38.234375 27.515625 -34.140625 L 17.40625 -34.140625 L 17.40625 -38.765625 C 17.40625 -40.015625 17.234375 -40.976562 16.890625 -41.65625 C 16.546875 -42.34375 15.929688 -42.6875 15.046875 -42.6875 C 13.078125 -42.6875 12.09375 -41.398438 12.09375 -38.828125 L 12.09375 -13.78125 C 12.09375 -12.21875 12.296875 -11.035156 12.703125 -10.234375 C 13.109375 -9.429688 13.8125 -9.03125 14.8125 -9.03125 C 15.8125 -9.03125 16.507812 -9.429688 16.90625 -10.234375 C 17.3125 -11.035156 17.515625 -12.21875 17.515625 -13.78125 L 17.515625 -21.1875 L 14.75 -21.1875 L 14.75 -30.09375 L 27.390625 -30.09375 L 27.390625 0 L 23.234375 0 L 21.5 -4.328125 C 19.644531 -1.117188 16.789062 0.484375 12.9375 0.484375 Z M 12.9375 0.484375 "></path></g></g></g><g clip-path="url(#b5ca3b7cc4)"><path fill="#000000" d="M 0.917969 13.234375 L 24.832031 13.234375 L 24.832031 64.992188 L 0.917969 64.992188 Z M 0.917969 13.234375 " fill-opacity="1" fill-rule="nonzero"></path></g><g fill="#ffffff" fill-opacity="1"><g transform="translate(20.048019, 62.584572)"><g><path d="M 0 -1.953125 L -16.046875 -0.25 L -16.046875 -3.375 L -5.921875 -4.28125 L -16.046875 -5.171875 L -16.046875 -8.15625 L -5.921875 -9.015625 L -16.046875 -9.875 L -16.046875 -13.046875 L 0 -11.296875 L 0 -7.453125 L -7.734375 -6.640625 L 0 -5.875 Z M 0 -1.953125 "></path></g></g></g><g fill="#ffffff" fill-opacity="1"><g transform="translate(20.048019, 49.295325)"><g><path d="M 0 -0.703125 L -16.046875 -0.703125 L -16.046875 -7.125 L -12.9375 -7.125 L -12.9375 -3.984375 L -9.828125 -3.984375 L -9.828125 -7 L -6.796875 -7 L -6.796875 -3.984375 L -3.125 -3.984375 L -3.125 -7.34375 L 0 -7.34375 Z M 0 -0.703125 "></path></g></g></g><g fill="#ffffff" fill-opacity="1"><g transform="translate(20.048019, 41.60548)"><g><path d="M 0.15625 -4.515625 C 0.15625 -3.054688 -0.203125 -2.003906 -0.921875 -1.359375 C -1.648438 -0.710938 -2.816406 -0.390625 -4.421875 -0.390625 L -6 -0.390625 L -6 -3.546875 L -4 -3.546875 C -3.195312 -3.546875 -2.796875 -3.800781 -2.796875 -4.3125 C -2.796875 -4.601562 -2.878906 -4.800781 -3.046875 -4.90625 C -3.222656 -5.019531 -3.507812 -5.078125 -3.90625 -5.078125 C -4.425781 -5.078125 -4.859375 -5.015625 -5.203125 -4.890625 C -5.546875 -4.765625 -5.832031 -4.601562 -6.0625 -4.40625 C -6.289062 -4.21875 -6.644531 -3.875 -7.125 -3.375 L -8.515625 -2 C -9.554688 -0.925781 -10.710938 -0.390625 -11.984375 -0.390625 C -13.359375 -0.390625 -14.398438 -0.703125 -15.109375 -1.328125 C -15.828125 -1.960938 -16.1875 -2.882812 -16.1875 -4.09375 C -16.1875 -5.53125 -15.800781 -6.566406 -15.03125 -7.203125 C -14.269531 -7.835938 -13.078125 -8.15625 -11.453125 -8.15625 L -11.453125 -4.890625 L -12.546875 -4.875 C -12.753906 -4.875 -12.921875 -4.8125 -13.046875 -4.6875 C -13.171875 -4.570312 -13.234375 -4.410156 -13.234375 -4.203125 C -13.234375 -3.953125 -13.164062 -3.765625 -13.03125 -3.640625 C -12.894531 -3.515625 -12.707031 -3.453125 -12.46875 -3.453125 C -11.945312 -3.453125 -11.40625 -3.75 -10.84375 -4.34375 L -9.0625 -6.21875 C -8.632812 -6.65625 -8.226562 -7.015625 -7.84375 -7.296875 C -7.46875 -7.585938 -7.019531 -7.816406 -6.5 -7.984375 C -5.988281 -8.160156 -5.378906 -8.25 -4.671875 -8.25 C -3.085938 -8.25 -1.882812 -7.957031 -1.0625 -7.375 C -0.25 -6.800781 0.15625 -5.847656 0.15625 -4.515625 Z M 0.15625 -4.515625 "></path></g></g></g><g fill="#ffffff" fill-opacity="1"><g transform="translate(20.048019, 33.001064)"><g><path d="M 0 -0.28125 L -16.046875 -1.828125 L -16.046875 -7.265625 L 0 -8.796875 L 0 -5.75 L -2.59375 -5.53125 L -2.59375 -3.578125 L 0 -3.390625 Z M -5.15625 -3.828125 L -5.15625 -5.28125 L -13.3125 -4.578125 L -13.3125 -4.421875 Z M -5.15625 -3.828125 "></path></g></g></g><g fill="#ffffff" fill-opacity="1"><g transform="translate(20.048019, 23.948694)"><g><path d="M 0 -2.65625 L -5.28125 -2.65625 L -16.046875 -0.09375 L -16.046875 -3.265625 L -10.609375 -4.15625 L -16.046875 -5.0625 L -16.046875 -8.234375 L -5.28125 -5.671875 L 0 -5.671875 Z M 0 -2.65625 "></path></g></g></g><g clip-path="url(#89d8992efe)"><g clip-path="url(#1288cfac32)"><path fill="#ff492e" d="M 135.808594 51.699219 L 149.082031 51.699219 L 149.082031 64.976562 L 135.808594 64.976562 Z M 135.808594 51.699219 " fill-opacity="1" fill-rule="nonzero"></path></g></g></svg></svg></g></g></svg>